<svg xmlns="http://www.w3.org/2000/svg" width="240.124" height="239.219"><path data-name="Designed and developed by Hunter Jennings." d="M14.956 176.04l17.742-8.321-2.853-6.083c-2.235-4.765-5.78-6.194-10.621-3.923l-3.346 1.569c-4.841 2.27-6.009 5.91-3.774 10.675zm1.473-4.772l-1.308-2.788c-1.343-2.864-.36-4.593 2.225-5.805l3.548-1.664c2.585-1.213 4.543-.863 5.886 2l1.307 2.788zm2.719-16.528c4.149-1.175 6.351-4.913 5.222-8.9a6.881 6.881 0 0 0-5-5.132l-.831 3.233a3.645 3.645 0 0 1 2.94 2.777 3.389 3.389 0 0 1-2.267 4.251l-2.754-9.728-1.266.359c-4.015 1.137-6 4.521-4.9 8.4 1.12 3.933 4.814 5.884 8.856 4.74zm-2.205-3.16a3.085 3.085 0 0 1-3.73-2.378 3.032 3.032 0 0 1 1.96-3.873zm-4.965-12.528c2.555-.327 3.49-2.507 3.6-5.8l.065-1.7c.044-1.417.34-2.189 1.173-2.3s1.586.7 1.792 2.311a5.226 5.226 0 0 1-2.252 5.115l2.046 2.533a8.83 8.83 0 0 0 3.032-8.066c-.434-3.388-2.552-5.6-5.273-5.252s-3.447 2.84-3.563 5.9l-.065 1.7c-.055 1.334-.355 2.078-1.1 2.174s-1.387-.472-1.565-1.86a5.969 5.969 0 0 1 1.8-4.86l-2.385-2.094a9.578 9.578 0 0 0-2.232 7.483c.412 3.177 2.372 5.043 4.927 4.716zM2.472 124.12a2.494 2.494 0 1 0-2.463-2.438 2.377 2.377 0 0 0 2.463 2.438zm3.937-4.346l.079 3.528 13.888-.311-.079-3.528zm.843-15.051l1.952.184-.037.39a4.781 4.781 0 0 0-2.757 4.184c-.325 3.457 2.357 6.635 6.483 7.023s7.354-2.233 7.679-5.689a4.78 4.78 0 0 0-1.927-4.626l.032-.334 1.784.168c2.453.231 3.414 1.981 3.209 4.155a4.624 4.624 0 0 1-3.123 3.9l1.561 3.128a8.093 8.093 0 0 0 4.594-6.965c.409-4.349-1.98-7.358-5.771-7.715l-13.353-1.257zm10.287 4.85a3.98 3.98 0 1 1-3.6-4.164 3.66 3.66 0 0 1 3.6 4.16zM8.572 95.838l13.411 3.61.917-3.407-6.921-1.864c-2.38-.64-3.419-2.167-2.829-4.357a2.83 2.83 0 0 1 3.789-2.227l7.679 2.067.917-3.407-8-2.155c-3.488-.939-6.228.731-7.029 3.705-.662 2.46.139 4.01 1.237 4.885l-.1.379-2.163-.582zm11.254-14.5c3.934 1.767 8.023.319 9.721-3.462a6.882 6.882 0 0 0-.535-7.147l-2.714 1.943a3.643 3.643 0 0 1 .467 4.016 3.389 3.389 0 0 1-4.462 1.8l4.142-9.221-1.2-.539c-3.805-1.71-7.5-.391-9.151 3.287-1.676 3.731-.099 7.601 3.732 9.323zm.343-3.837a3.085 3.085 0 0 1-1.329-4.219 3.031 3.031 0 0 1 3.991-1.707zm4.038-30.066l-1.942 2.945 6.4 4.223-.185.281a4.777 4.777 0 0 0-4.4 2.4c-1.912 2.9-.943 7.026 2.61 9.368s7.728 1.607 9.639-1.292a4.78 4.78 0 0 0 .471-4.988l.216-.327 1.636 1.079 1.911-2.9zm3.022 10.779c1.2-1.824 3.4-2.316 5.6-.868s2.613 3.668 1.411 5.491c-1.172 1.777-3.359 2.347-5.6.868s-2.583-3.715-1.411-5.491zm12.822-15.452l3.273-.679a4.008 4.008 0 0 1 .951-4.564c1.433-1.337 2.894-1.168 3.772-.226l.306.328-3.49 4.059c-1.754 2.02-2.116 4.465-.607 6.082 1.815 1.946 4.477 1.761 6.77-.379 2.15-2.006 1.893-3.719 1.59-4.7l.286-.268 1.338 1.434 2.539-2.369-5.98-6.41c-2.292-2.457-5.667-2.257-8.37.265a7.967 7.967 0 0 0-2.378 7.427zm6.774 2.335c-.554-.594-.484-1.463.364-2.484l2.769-3.272.229.246c1.3 1.392 1.289 3.393-.513 5.074-1.147 1.07-2.199 1.132-2.849.436zm4.547-17.038l7.735 11.535 2.93-1.965-3.992-5.954c-1.372-2.046-1.152-3.879.732-5.142a2.83 2.83 0 0 1 4.319.811l4.429 6.6 2.93-1.965-4.616-6.883c-2.011-3-5.173-3.543-7.731-1.827-2.116 1.419-2.531 3.113-2.279 4.495l-.326.218-1.247-1.86zM77.644 6.995l-3.218 1.446 3.144 7-.307.138a4.779 4.779 0 0 0-5-.333c-3.168 1.423-4.562 5.426-2.818 9.308s5.663 5.5 8.83 4.076a4.779 4.779 0 0 0 3.072-3.959l.358-.161.8 1.788 3.167-1.423zm-3.227 10.72c1.993-.895 4.117-.13 5.195 2.271s.24 4.5-1.752 5.392c-1.942.872-4.094.181-5.2-2.271s-.184-4.519 1.757-5.391zm31.74-17.72l-3.474.615 1.338 7.555-.331.059a4.779 4.779 0 0 0-4.766-1.545c-3.419.605-5.75 4.146-5.008 8.337s4.147 6.716 7.566 6.111a4.777 4.777 0 0 0 3.946-3.088l.384-.07.342 1.93 3.419-.606zm-5.745 9.607c2.151-.381 4.023.88 4.482 3.472s-.867 4.419-3.017 4.8c-2.1.371-4.014-.825-4.483-3.472s.918-4.433 3.018-4.8zm11.371 2.434c.07 4.312 3.117 7.4 7.261 7.331a6.885 6.885 0 0 0 6.245-3.519l-2.912-1.633a3.644 3.644 0 0 1-3.438 2.129 3.389 3.389 0 0 1-3.527-3.275l10.108-.165-.022-1.316c-.068-4.172-2.83-6.956-6.862-6.89-4.091.071-6.924 3.138-6.857 7.338zm3.619-1.319a3.084 3.084 0 0 1 3.256-2.994 3.032 3.032 0 0 1 3.24 2.888zm12.741-5.61l2.914 14.4 5.163.687 6.578-13.135-3.775-.5-4.811 10.258-.333-.044-1.967-11.164zm15.569 9.151c-1.2 4.141.8 7.988 4.778 9.144a6.879 6.879 0 0 0 7-1.522l-2.3-2.418a3.644 3.644 0 0 1-3.912 1.021 3.389 3.389 0 0 1-2.4-4.168l9.705 2.82.368-1.264c1.164-4.006-.655-7.479-4.527-8.6-3.923-1.145-7.536.954-8.712 4.987zm3.847-.194a3.084 3.084 0 0 1 3.993-1.9 3.031 3.031 0 0 1 2.244 3.714zm20.083-4.977l-3.261-1.35-7.5 18.115 3.261 1.35zm-1.9 12.766a7.281 7.281 0 1 0 9.925-2.884 7.077 7.077 0 0 0-9.926 2.883zm3.086 1.711c1.222-2.2 3.36-2.94 5.319-1.854s2.467 3.289 1.245 5.493-3.36 2.94-5.319 1.854-2.468-3.288-1.246-5.493zm4.708 17.122l2.762 2.194 4.7-5.921.263.209a4.781 4.781 0 0 0 2 4.593c2.719 2.159 6.915 1.558 9.561-1.775s2.281-7.556-.438-9.715a4.781 4.781 0 0 0-4.927-.909l-.307-.243 1.219-1.535-2.719-2.159zm10.933-1.973c-1.711-1.358-2.007-3.595-.371-5.657s3.883-2.279 5.594-.921c1.666 1.323 2.042 3.552.37 5.657s-3.928 2.244-5.594.921zm10.279 3.015c-3.182 2.909-3.475 7.235-.679 10.293a6.879 6.879 0 0 0 6.771 2.344l-.706-3.261a3.645 3.645 0 0 1-3.871-1.164 3.388 3.388 0 0 1 .116-4.81l6.819 7.458.971-.888c3.079-2.814 3.333-6.726.613-9.7-2.759-3.018-6.936-3.106-10.035-.272zm3.385 1.836a3.084 3.084 0 0 1 4.4.454 3.03 3.03 0 0 1-.016 4.339zm26 15.576l-1.938-2.949-6.413 4.214-.185-.281a4.78 4.78 0 0 0-.464-4.99c-1.907-2.9-6.081-3.645-9.639-1.307s-4.533 6.464-2.626 9.366a4.781 4.781 0 0 0 4.4 2.407l.216.327-1.639 1.077 1.907 2.9zm-11.1-1.488c1.2 1.826.782 4.045-1.419 5.491s-4.4.949-5.6-.876c-1.169-1.779-.827-4.014 1.42-5.491s4.427-.907 5.595.876zm17.979 15.429l-18.511 6.451 1.143 3.279 1.851-.645.129.37a4.78 4.78 0 0 0-.765 4.952c1.143 3.279 5.01 5.016 9.029 3.615s5.97-5.165 4.827-8.444a4.779 4.779 0 0 0-3.677-3.4l-.111-.317 7.246-2.526zm-5.572 9.711c.7 2.01-.174 4.094-2.713 4.979s-4.519-.2-5.22-2.214c-.719-2.063.228-4.112 2.713-4.979s4.497.151 5.216 2.214zm7.727 20.268l-10.446-1.875-.058-.332 9.2-5.3-.653-3.752-13.577 8.221-4.971-1.124.65 3.755 20.508 4.159zm6.975 16.738l-19.557-1.324-.25 3.688 8.13.551-.5 7.375-8.13-.55-.249 3.688 19.557 1.324.249-3.688-8.08-.547.5-7.375 8.074.546zm-24.336 29.7l13.487 3.323.844-3.426-6.961-1.715c-2.393-.59-3.464-2.094-2.922-4.3a2.832 2.832 0 0 1 3.742-2.309l7.722 1.9.844-3.426-8.05-1.976c-3.507-.864-6.211.863-6.948 3.854-.61 2.475.224 4.007 1.341 4.859l-.094.381-2.175-.536zm11.735 8.531l-12.745-5.525-1.4 3.237 6.578 2.852c2.261.98 3.067 2.642 2.165 4.723a2.832 2.832 0 0 1-4.082 1.653l-7.3-3.163-1.4 3.237 7.606 3.3c3.315 1.437 6.27.184 7.5-2.642 1.013-2.338.447-3.988-.513-5.015l.156-.359 2.056.891zm-7.127 15.6l-2.528-1.555-1.848 3-7.011-4.311a2.634 2.634 0 0 0-3.727.93l-1.994 3.243 2.528 1.555 1.173-1.908a.725.725 0 0 1 1.126-.228l6.058 3.724-2 3.244 2.528 1.554 2-3.243 3.673 2.258 1.847-3-3.673-2.258zm-12.854 7.764c-3.339-2.728-7.663-2.392-10.285.817a6.882 6.882 0 0 0-1.341 7.04l3.126-1.171a3.642 3.642 0 0 1 .592-4 3.39 3.39 0 0 1 4.777-.581l-6.4 7.828 1.019.832c3.23 2.64 7.139 2.326 9.69-.8 2.587-3.157 2.074-7.304-1.182-9.961zm-1.328 3.616a3.083 3.083 0 0 1 .187 4.419 3.032 3.032 0 0 1-4.3.611zm-7.426 16.484l2.521-2.39-9.559-10.081-2.561 2.429 5.473 5.772a2.755 2.755 0 0 1-.231 4.234l-1.5 1.426 2.119 2.235.976-.925c1.28-1.214 1.768-2.409 1.094-3.893l.285-.27zm-20.475 22.246l3.138-1.952-7.245-11.649c-.975-1.569-.729-2.975.674-3.847a2.6 2.6 0 0 1 3.891 1.008l.976 1.569 3.138-1.951-.976-1.569c-2.085-3.352-5.475-3.98-8.9-1.851-3.257 2.026-4.086 5.146-1.942 8.593zm-9.527-9.06c-1.7-3.961-5.7-5.659-9.5-4.022a6.882 6.882 0 0 0-4.439 5.628l3.313.4a3.644 3.644 0 0 1 2.372-3.275 3.389 3.389 0 0 1 4.506 1.689l-9.287 3.994.52 1.209c1.648 3.833 5.261 5.358 8.966 3.765 3.75-1.607 5.205-5.525 3.545-9.384zm-2.846 2.6a3.085 3.085 0 0 1-1.874 4.007 3.032 3.032 0 0 1-4.1-1.44zm-11.285 10.513l-3.383-13.471-3.422.859 1.746 6.953c.6 2.39-.227 4.042-2.427 4.594a2.831 2.831 0 0 1-3.792-2.224l-1.937-7.713-3.423.859 2.019 8.04c.88 3.5 3.673 5.083 6.661 4.333 2.472-.621 3.435-2.075 3.664-3.461l.38-.1.546 2.173zm-18.474 4.164l-1.105-13.842-3.517.281.571 7.144c.2 2.456-.893 3.947-3.154 4.128a2.83 2.83 0 0 1-3.37-2.821l-.633-7.926-3.517.281.66 8.261c.287 3.6 2.78 5.62 5.85 5.375 2.539-.2 3.729-1.477 4.185-2.806l.391-.031.178 2.233zm-17.612 4.948a2.494 2.494 0 1 0-2.576 2.318 2.377 2.377 0 0 0 2.572-2.318zm-4.111-4.181l3.526.125.488-13.879-3.526-.125zm-4.768-.154l2.089-13.729-3.488-.531-1.078 7.086c-.371 2.436-1.771 3.639-4.013 3.3a2.831 2.831 0 0 1-2.637-3.517l1.2-7.861-3.488-.53-1.246 8.193c-.544 3.57 1.421 6.107 4.466 6.57 2.519.383 3.969-.586 4.716-1.775l.388.059-.337 2.214zm-28.521-6.556l.616-1.861.373.123a4.778 4.778 0 0 0 3.46 3.624c3.3 1.092 6.994-.81 8.3-4.744s-.529-7.667-3.825-8.759a4.778 4.778 0 0 0-4.939.842l-.319-.106.564-1.7c.774-2.339 2.7-2.883 4.768-2.2a4.622 4.622 0 0 1 3.1 3.917l3.4-.821a8.091 8.091 0 0 0-5.758-6.037c-4.146-1.374-7.614.28-8.812 3.9l-4.217 12.732zm7.032-8.939a3.98 3.98 0 1 1-4.866 2.577 3.661 3.661 0 0 1 4.859-2.577zm-13.117 2.379c1.187-2.286-.074-4.3-2.712-6.264l-1.362-1.023c-1.14-.843-1.606-1.526-1.219-2.272s1.479-.905 2.92-.157a5.23 5.23 0 0 1 2.923 4.765l3.247-.24a8.828 8.828 0 0 0-4.9-7.086c-3.033-1.573-6.058-1.092-7.322 1.344s.372 4.451 2.825 6.291l1.362 1.022c1.065.805 1.506 1.476 1.158 2.147s-1.177.871-2.42.227a5.973 5.973 0 0 1-2.968-4.252l-3.08.768a9.58 9.58 0 0 0 4.882 6.1c2.825 1.466 5.476.917 6.662-1.37zm-9.442-13.984a2.66 2.66 0 1 0-3.691.727 2.574 2.574 0 0 0 3.691-.727z" fill="#fcfcfc" fill-rule="evenodd"/></svg>